<svg width="204" height="204" xmlns="http://www.w3.org/2000/svg" fill="none">
 <defs>
  <linearGradient y2="0.45146" x2="1.11825" y1="0.44713" x1="-0.06095" id="paint0_linear_16_339">
   <stop stop-color="#AA367C"/>
   <stop stop-color="#4A2FBD" offset="1"/>
  </linearGradient>
 </defs>
 <g>
  <title>Layer 1</title>
  <path id="svg_1" fill="url(#paint0_linear_16_339)" d="m186.76181,70.77929c5.453,-2.0435 11.587,0.7122 13.057,6.3463c5.542,21.2379 4.106,43.8026 -4.26,64.2976c-9.699,23.764 -28.001,42.997 -51.254,53.863c-23.254,10.866 -49.7487,12.566 -74.1999,4.76c-24.4512,-7.805 -45.061,-24.541 -57.7179,-46.87c-12.65687,-22.329 -16.43038,-48.609 -10.5677,-73.5974c5.86268,-24.9882 20.9305,-46.8476 42.1976,-61.2174c21.2671,-14.36981 47.17,-20.1936 72.5409,-16.30956c21.882,3.3498 22.95689,10.73596 22.26828,15.92167c-2.39033,8.40765 -8.82628,7.46789 -25.45928,4.92159c-20.1259,-3.0811 -40.6739,1.5387 -57.5446,12.9379c-16.8706,11.3992 -28.8236,28.7397 -33.4743,48.5622c-4.6507,19.822 -1.6572,40.67 8.3831,58.383c10.0404,17.713 26.3897,30.989 45.7861,37.181c19.3965,6.192 40.4147,4.843 58.8607,-3.777c18.446,-8.619 32.964,-23.876 40.659,-42.727c6.359,-15.579 7.67,-32.6663 3.901,-48.89c-1.318,-5.6716 1.372,-11.7423 6.824,-13.7859z"/>
  <path opacity="0" id="svg_2" fill="white" d="m66.08,99.16c0,4.644 3.24,8.352 7.956,8.352c0.612,0 1.044,-0.072 1.296,-0.216l-5.436,7.704l7.632,0l5.544,-8.82c1.404,-2.268 2.304,-4.86 2.304,-7.2c0,-5.256 -4.068,-9.18 -9.648,-9.18c-5.472,0 -9.648,3.96 -9.648,9.36zm6.336,-0.252c0,-1.836 1.476,-3.24 3.348,-3.24c1.872,0 3.312,1.44 3.312,3.276c0,1.836 -1.44,3.24 -3.312,3.24c-1.872,0 -3.348,-1.44 -3.348,-3.276zm21.9811,6.012c0.54,-0.864 1.584,-1.548 2.916,-1.548c1.836,0 3.1679,1.296 3.1679,3.06c0,1.764 -1.3319,3.168 -3.1679,3.168c-1.908,0 -2.952,-1.26 -3.06,-2.376l-6.336,0c0.108,5.004 3.78,8.28 9.504,8.28c5.3639,0 9.4679,-3.996 9.4679,-9.396c0,-4.464 -3.204,-8.172 -7.9199,-8.172c-1.548,0 -2.916,0.396 -4.104,1.152l0.468,-3.168l9.8279,0l0,-5.616l-14.7959,0l-1.836,13.392l5.868,1.224zm26.9599,-8.892c0,-3.42 -2.772,-6.084 -6.336,-6.084c-3.564,0 -6.336,2.664 -6.336,6.084c0,3.42 2.772,6.084 6.336,6.084c3.564,0 6.336,-2.664 6.336,-6.084zm-4.248,0c0,1.26 -0.9,2.124 -2.088,2.124c-1.188,0 -2.088,-0.864 -2.088,-2.124c0,-1.26 0.9,-2.124 2.088,-2.124c1.188,0 2.088,0.864 2.088,2.124zm17.748,-5.76l-5.508,0l-18.36,24.732l5.508,0l18.36,-24.732zm-10.368,18.972c0,3.42 2.772,6.084 6.336,6.084c3.564,0 6.336,-2.664 6.336,-6.084c0,-3.42 -2.772,-6.084 -6.336,-6.084c-3.564,0 -6.336,2.664 -6.336,6.084zm4.248,0c0,-1.26 0.9,-2.124 2.088,-2.124c1.188,0 2.088,0.864 2.088,2.124c0,1.26 -0.9,2.124 -2.088,2.124c-1.188,0 -2.088,-0.864 -2.088,-2.124z"/>
  <text transform="matrix(1.55539 0 0 1.55539 -36.6555 -16.6216)" stroke="#000" font-weight="bold" xml:space="preserve" text-anchor="start" font-family="'Rubik'" font-size="24" id="svg_4" y="84.10356" x="65.94802" stroke-width="0" fill="#ffffff">75%</text>
 </g>
</svg>