<svg width="204" height="204" xmlns="http://www.w3.org/2000/svg" fill="none">
 <defs>
  <linearGradient y2="0.45146" x2="1.11825" y1="0.44713" x1="-0.06095" id="paint0_linear_16_339">
   <stop stop-color="#AA367C"/>
   <stop stop-color="#4A2FBD" offset="1"/>
  </linearGradient>
 </defs>
 <g>
  <title>Layer 1</title>
  <path id="svg_1" fill="url(#paint0_linear_16_339)" d="m187.639,69.9021c5.453,-2.0435 11.587,0.7122 13.057,6.3463c5.542,21.2379 4.106,43.8026 -4.26,64.2976c-9.699,23.764 -28.001,42.997 -51.254,53.863c-23.254,10.866 -49.7487,12.566 -74.1999,4.76c-24.4512,-7.805 -45.061,-24.541 -57.7179,-46.87c-12.65687,-22.329 -16.43038,-48.609 -10.5677,-73.5974c5.86268,-24.9882 20.9305,-46.8476 42.1976,-61.2174c21.2671,-14.36981 47.17,-20.1936 72.5409,-16.30956c21.882,3.3498 41.98,13.70806 57.356,29.37196c4.078,4.1554 3.292,10.8339 -1.262,14.4624c-4.554,3.6284 -11.144,2.8182 -15.334,-1.2258c-11.983,-11.5677 -27.318,-19.219 -43.951,-21.7653c-20.1259,-3.0811 -40.6739,1.5387 -57.5446,12.9379c-16.8706,11.3992 -28.8236,28.7397 -33.4743,48.5622c-4.6507,19.822 -1.6572,40.67 8.3831,58.383c10.0404,17.713 26.3897,30.989 45.7861,37.181c19.3965,6.192 40.4147,4.843 58.8607,-3.777c18.446,-8.619 32.964,-23.876 40.659,-42.727c6.359,-15.579 7.67,-32.6663 3.901,-48.89c-1.318,-5.6716 1.372,-11.7423 6.824,-13.7859z"/>
  <path id="svg_2" fill="white" d="m74.036,107.512z"/>
  <text font-weight="bold" transform="matrix(1.37683 0 0 1.37683 -59.6001 -31.6477)" stroke="null" xml:space="preserve" text-anchor="start" font-family="'Rubik'" font-size="24" stroke-width="0" id="svg_3" y="105.4505" x="93.90523" fill="#ffffff">95%</text>
 </g>
</svg>